<svg xmlns="http://www.w3.org/2000/svg" viewBox="0 0 48 48" role="img" aria-label="Integra Sutec">
  <defs>
    <linearGradient id="b" x1="8" y1="40" x2="40" y2="7" gradientUnits="userSpaceOnUse">
      <stop stop-color="#08c9b5"/>
      <stop offset=".52" stop-color="#0879ff"/>
      <stop offset="1" stop-color="#075ee8"/>
    </linearGradient>
  </defs>
  <rect width="48" height="48" rx="11" fill="#031b43"/>
  <path d="M21.1 7.4h5.8l1 4.1c1.2.4 2.4.9 3.5 1.5l3.6-2.2 4.1 4.1-2.2 3.6c.6 1.1 1.1 2.3 1.5 3.5l4.1 1v5.8l-4.1 1c-.4 1.2-.9 2.4-1.5 3.5l2.2 3.6-4.1 4.1-3.6-2.2c-1.1.6-2.3 1.1-3.5 1.5l-1 4.1h-5.8l-1-4.1a18 18 0 0 1-3.5-1.5L13 41l-4.1-4.1 2.2-3.6a18 18 0 0 1-1.5-3.5l-4.1-1V23l4.1-1c.4-1.2.9-2.4 1.5-3.5l-2.2-3.6 4.1-4.1 3.6 2.2c1.1-.6 2.3-1.1 3.5-1.5l1-4.1Z" fill="#fff"/>
  <circle cx="24" cy="26" r="9.5" fill="#031b43"/>
  <path d="m9 34 10-11 6 5L39 10m0 0h-9m9 0v9" fill="none" stroke="url(#b)" stroke-width="5" stroke-linecap="round" stroke-linejoin="round"/>
  <path d="m15 39 6-7 4 3 8-9" fill="none" stroke="#08c9b5" stroke-width="2.5" stroke-linecap="round" stroke-linejoin="round"/>
  <circle cx="15" cy="39" r="2" fill="#08c9b5"/><circle cx="25" cy="35" r="2" fill="#08c9b5"/><circle cx="33" cy="26" r="2" fill="#08c9b5"/>
</svg>
